# xmcd
#
# Track frame offsets:
#	150
#	14115
#	30590
#	45445
#	56310
#	75422
#	95925
#	113970
#	123527
#	135097
#	150730
#	169235
#	188215
#	207255
#
# Disc length: 2982 seconds
#
# Revision: 1
# Processed by: cddbd v1.5PL3 Copyright (c) Steve Scherf et al.
# Submitted via: CDex 1.50Beta5
#
DISCID=b60ba40e
DTITLE=Anyone - Sounnd Of Andes (Disc2)
DYEAR=1900
DGENRE=
TTITLE0=Guaquenita ~ Morena Kolla
TTITLE1=Estoy Llorando
TTITLE2=Huerfana Virginia
TTITLE3=Eco De Inkallajta
TTITLE4=Awki Awki
TTITLE5=Grecos Criollos
TTITLE6=Coplas Para La Pascua
TTITLE7=Flor De Cana
TTITLE8=Achacachenita
TTITLE9=Bichito Del Flor
TTITLE10=El Olvido
TTITLE11=Pasos Tormentosos - En Los Arenales
TTITLE12=Lucero De Las Montanas ~ Jukumari
TTITLE13=El Condor Paso
EXTD=
EXTT0=
EXTT1=
EXTT2=
EXTT3=
EXTT4=
EXTT5=
EXTT6=
EXTT7=
EXTT8=
EXTT9=
EXTT10=
EXTT11=
EXTT12=
EXTT13=
PLAYORDER=
